<svg width="80" height="30" viewBox="0 0 80 30" fill="none" xmlns="http://www.w3.org/2000/svg">
  <rect width="30" height="30" rx="8" fill="#EF4444"/>
  <path d="M12.4 10.2h5.8a4.1 4.1 0 0 1 0 8.2h-1.8" stroke="#FFFFFF" stroke-width="2.4" stroke-linecap="round"/>
  <path d="M17.6 19.8h-5.8a4.1 4.1 0 0 1 0-8.2h1.8" stroke="#FFFFFF" stroke-width="2.4" stroke-linecap="round"/>
  <path d="M43.2 21.4c-1.2 0-2.2-.4-2.9-1.2v1h-3.1V7.7h3.2v4.7c.7-.7 1.6-1 2.8-1 2.7 0 4.8 2 4.8 5s-2.1 5-4.8 5Zm-.7-2.6c1.3 0 2.3-.9 2.3-2.4 0-1.5-1-2.4-2.3-2.4s-2.3.9-2.3 2.4c0 1.5 1 2.4 2.3 2.4Z" fill="#020817"/>
  <path d="M50.1 21.2v-9.6h3.1v1.2c.7-.9 1.7-1.3 3-1.3v2.9c-.3 0-.5-.1-.7-.1-1.4 0-2.2.8-2.2 2.5v4.4h-3.2Z" fill="#020817"/>
  <path d="M62.3 21.4c-3.1 0-5.4-2.1-5.4-5s2.2-5 5.2-5c2.8 0 5 1.8 5 5.1 0 .2 0 .5-.1.8h-6.9c.3 1 1.1 1.6 2.4 1.6.9 0 1.5-.3 2.1-.8l1.7 1.8c-.9 1-2.2 1.5-4 1.5Zm-2.2-5.9h4c-.2-1.1-1-1.7-2-1.7s-1.8.6-2 1.7Z" fill="#020817"/>
  <path d="M68.9 21.2V7.7h3.2v13.5h-3.2Z" fill="#020817"/>
  <path d="M75.7 21.3c-1 0-1.8-.7-1.8-1.7s.8-1.7 1.8-1.7 1.8.7 1.8 1.7-.8 1.7-1.8 1.7Z" fill="#EF4444"/>
</svg>
