<svg width="45" height="38" viewBox="0 0 45 38" fill="none" xmlns="http://www.w3.org/2000/svg">
<path fill-rule="evenodd" clip-rule="evenodd" d="M38.8946 10.222C42.5667 13.0838 44.3761 17.0415 44.4421 21.5989C44.4858 24.6162 43.9532 27.582 42.5864 30.1879C41.8992 31.3581 41.0317 32.448 39.9596 33.4266C36.4977 36.5865 31.8522 37.7068 27.108 37.7747C22.3638 37.8425 17.6879 36.8555 14.136 33.7958C12.5674 32.4447 11.409 30.8567 10.5907 29.1203C8.83835 29.2249 7.04213 28.7178 5.55201 27.5575L5.54998 27.5559C1.87788 24.6941 0.0684494 20.7364 0.00246837 16.179C-0.0412154 13.1617 0.491693 10.1953 1.85856 7.58946C2.54572 6.41927 3.4129 5.32995 4.48504 4.35132C7.9469 1.19137 12.5924 0.0710754 17.3366 0.00323883C22.0808 -0.0645977 26.7567 0.922409 30.3086 3.98207C31.8771 5.33321 33.0356 6.92122 33.8538 8.65761C35.6062 8.55299 37.4025 9.06015 38.8926 10.2204L38.8946 10.222ZM7.97031 15.9572C7.97031 18.0686 8.63383 19.547 10.1228 20.752C10.791 21.2928 10.8969 22.2789 10.3565 22.9509C9.81601 23.623 8.83631 23.7277 8.16656 23.1854C5.93926 21.3803 4.85521 19.0172 4.85521 15.9572C4.85521 8.5383 9.05437 4.77651 17.3421 4.77651C25.6298 4.77651 29.8305 8.5383 29.8305 15.9572C29.8305 19.0266 28.7465 21.3912 26.5161 23.1869C26.2295 23.4182 25.8853 23.5308 25.5426 23.5308C25.0878 23.5308 24.6345 23.3307 24.3277 22.9463C23.7888 22.2727 23.8963 21.2881 24.5676 20.7489C26.0535 19.5517 26.717 18.0733 26.717 15.9572C26.717 11.9735 25.6033 7.90222 17.3436 7.90222C9.08396 7.90222 7.97031 11.975 7.97031 15.9572ZM33.6201 14.735C34.1605 14.0646 35.1402 13.9567 35.81 14.5006V14.499C38.0373 16.3041 39.1213 18.6672 39.1213 21.7272C39.1213 29.1461 34.9206 32.9079 26.6329 32.9079C18.3452 32.9079 14.1444 29.1461 14.1444 21.7272C14.1444 18.6578 15.2285 16.2932 17.4589 14.4975C18.1287 13.9567 19.1099 14.063 19.6488 14.7381C20.1877 15.4117 20.0803 16.3963 19.409 16.9355C17.9231 18.1327 17.2595 19.6111 17.2595 21.7272C17.2595 25.7109 18.3732 29.7822 26.6329 29.7822C34.8926 29.7822 36.0062 25.7094 36.0062 21.7272C36.0062 19.6158 35.3427 18.1374 33.8537 16.9324C33.1855 16.3916 33.0796 15.407 33.6201 14.735Z" fill="#2C46B1"/>
</svg>
